<?xml version="1.0" encoding="UTF-8" ?>
<!DOCTYPE svg PUBLIC "-//W3C//DTD SVG 1.1//EN" "http://www.w3.org/Graphics/SVG/1.1/DTD/svg11.dtd">
<svg width="500pt" height="500pt" viewBox="0 0 500 500" version="1.1" xmlns="http://www.w3.org/2000/svg">
<path fill="#202020" d=" M 244.44 0.00 L 255.62 0.00 C 263.05 0.75 270.53 0.74 277.94 1.74 C 315.49 5.91 352.01 18.83 383.90 39.09 C 427.43 66.61 462.00 107.98 481.35 155.71 C 491.01 179.36 496.97 204.49 499.03 229.94 C 499.26 235.09 499.67 240.23 500.00 245.37 L 500.00 255.66 C 499.04 273.73 497.13 291.82 492.67 309.41 C 483.63 346.43 465.96 381.31 441.45 410.49 C 405.39 453.74 354.25 484.08 299.00 494.98 C 284.71 498.02 270.13 499.10 255.58 500.00 L 245.30 500.00 C 223.88 499.10 202.47 496.36 181.85 490.35 C 133.29 476.69 89.18 447.83 57.17 408.84 C 32.37 378.78 14.77 342.82 6.25 304.79 C 2.45 288.64 0.92 272.09 0.00 255.57 L 0.00 245.34 C 0.67 237.25 0.77 229.11 1.86 221.05 C 8.47 162.82 36.49 107.32 79.47 67.47 C 118.04 31.20 168.51 7.85 221.11 1.86 C 228.85 0.77 236.67 0.76 244.44 0.00 Z" />
<path fill="#fdfefe" d=" M 200.03 31.95 C 217.74 28.13 235.92 27.06 254.00 27.01 C 271.92 27.06 290.19 29.12 306.81 36.20 C 323.48 43.06 338.20 54.91 347.50 70.45 C 360.68 92.10 364.13 118.13 364.00 143.05 C 364.00 197.72 364.00 252.39 364.00 307.06 C 363.91 315.24 364.19 323.43 363.85 331.61 C 351.39 334.71 338.71 336.73 326.06 338.84 C 303.59 342.60 280.82 344.59 258.04 344.94 C 240.36 345.34 222.52 344.00 205.41 339.36 C 187.43 334.53 170.25 325.06 158.34 310.50 C 147.91 297.92 141.75 282.13 139.98 265.94 C 137.60 245.27 139.12 223.13 149.85 204.82 C 158.69 189.28 173.13 177.52 189.27 170.19 C 209.52 160.90 231.92 157.57 253.98 156.34 C 273.45 155.18 293.00 157.12 312.07 161.04 C 316.78 162.00 321.49 163.08 326.00 164.80 C 326.03 146.37 326.48 127.74 322.58 109.62 C 319.17 94.73 310.63 80.68 297.62 72.34 C 284.66 63.39 268.48 61.03 253.05 61.00 C 237.60 61.06 222.00 61.46 206.82 64.64 C 197.17 67.03 187.70 70.09 178.29 73.30 C 176.55 62.19 174.78 51.09 173.00 39.98 C 181.61 36.13 190.84 33.94 200.03 31.95 Z" />
<path fill="#fdfefe" d=" M 102.72 95.75 C 110.36 88.93 118.18 81.74 127.97 78.21 C 136.91 75.06 148.70 80.20 150.48 89.98 C 151.62 96.07 147.67 101.74 142.73 104.86 C 122.54 116.69 109.45 137.19 99.69 157.87 C 88.56 182.82 81.50 209.72 80.18 237.05 C 78.56 246.28 79.65 255.70 79.33 265.02 C 80.08 276.74 81.73 288.39 84.18 299.90 C 86.18 307.75 87.71 315.86 91.43 323.14 C 99.12 344.95 113.84 364.04 132.40 377.74 C 138.16 381.35 143.84 385.08 149.82 388.32 C 164.33 395.64 180.04 400.19 195.91 403.46 C 217.93 406.63 240.49 407.64 262.49 403.76 C 268.71 402.81 274.64 400.07 281.03 400.41 C 264.01 391.48 245.30 384.99 225.93 384.65 C 221.60 384.64 217.31 382.56 214.69 379.11 C 211.00 374.43 211.44 366.90 215.96 362.91 C 220.31 358.35 227.23 358.24 233.07 358.83 C 240.23 359.88 247.52 360.26 254.52 362.19 C 265.68 365.07 276.69 368.66 287.03 373.80 C 298.87 379.97 310.66 386.45 321.06 394.90 C 324.94 397.86 329.33 401.03 330.51 406.07 C 332.03 410.76 330.63 415.92 327.85 419.85 C 321.70 428.59 315.18 437.07 308.17 445.14 C 304.72 448.80 302.42 453.47 298.28 456.48 C 292.50 460.67 288.47 466.93 282.07 470.30 C 273.26 476.58 263.44 481.26 253.55 485.55 C 248.16 487.97 241.43 488.87 236.17 485.67 C 231.49 483.10 228.87 477.19 230.25 472.03 C 231.20 467.37 235.19 463.81 239.57 462.35 C 252.55 457.93 264.39 450.60 274.86 441.85 C 279.55 437.90 282.94 432.77 287.21 428.41 C 283.40 430.39 279.12 431.10 275.01 432.19 C 265.46 434.11 255.78 435.64 246.02 435.68 C 238.42 436.86 230.70 436.27 223.04 436.38 C 208.99 434.83 194.68 434.78 180.96 430.99 C 158.35 426.19 136.35 417.80 116.97 405.08 C 89.99 388.06 69.18 361.65 58.53 331.61 C 51.90 315.51 48.63 298.25 46.55 281.03 C 44.73 266.47 45.40 251.72 45.58 237.06 C 47.15 221.46 48.89 205.79 52.77 190.55 C 57.60 170.70 64.97 151.45 74.55 133.41 C 82.05 119.57 91.60 106.88 102.72 95.75 Z" />
<path fill="#202020" d=" M 232.81 191.70 C 251.07 188.76 269.68 188.36 288.10 189.78 C 301.03 190.73 313.77 193.74 325.90 198.27 C 326.11 234.09 325.97 269.92 325.97 305.74 C 304.57 309.71 282.75 310.94 261.02 311.00 C 246.38 311.06 231.53 310.04 217.49 305.62 C 205.69 301.84 194.39 294.93 187.73 284.21 C 180.60 273.27 178.67 259.82 179.04 246.99 C 179.34 236.02 182.02 224.66 189.09 216.00 C 199.58 202.31 216.18 194.71 232.81 191.70 Z" />
</svg>
